<svg width="188" height="37" viewBox="0 0 188 37" fill="none" xmlns="http://www.w3.org/2000/svg">
<path d="M8.7 28.18H6.288C4.224 28.18 2.76 27.688 1.896 26.704C1.032 25.696 0.6 24.076 0.6 21.844V6.508C0.6 4.516 1.32 3.076 2.76 2.188C4.2 1.276 6.12 0.819998 8.52 0.819998C10.92 0.819998 12.828 1.276 14.244 2.188C15.66 3.076 16.368 4.516 16.368 6.508V9.856C16.368 12.208 15.432 13.672 13.56 14.248C15.672 14.752 16.728 16.24 16.728 18.712V22.492C16.728 24.484 15.996 25.936 14.532 26.848C13.068 27.736 11.124 28.18 8.7 28.18ZM9.96 15.544H5.46C4.98 15.544 4.74 15.124 4.74 14.284C4.74 13.444 4.98 13.024 5.46 13.024H9.6C12.192 13.024 13.488 11.968 13.488 9.856V6.148C13.488 4.276 11.82 3.34 8.484 3.34C5.148 3.34 3.48 4.276 3.48 6.148V21.844C3.48 23.236 3.684 24.22 4.092 24.796C4.524 25.372 5.256 25.66 6.288 25.66H8.628C12.108 25.66 13.848 24.724 13.848 22.852V18.712C13.848 16.6 12.552 15.544 9.96 15.544ZM39.1535 7.048V22.852C39.1535 24.844 38.4335 26.296 36.9935 27.208C35.5775 28.096 33.6935 28.54 31.3415 28.54C28.9895 28.54 27.1055 28.096 25.6895 27.208C24.2735 26.296 23.5655 24.844 23.5655 22.852V7.048C23.5655 6.496 24.0455 6.22 25.0055 6.22C25.9655 6.22 26.4455 6.496 26.4455 7.048V23.212C26.4455 25.084 28.0775 26.02 31.3415 26.02C34.6295 26.02 36.2735 25.084 36.2735 23.212V7.048C36.2735 6.496 36.7535 6.22 37.7135 6.22C38.6735 6.22 39.1535 6.496 39.1535 7.048ZM56.661 12.988V11.188C56.661 9.316 55.545 8.38 53.313 8.38C51.081 8.38 49.965 9.316 49.965 11.188V27.712C49.965 28.264 49.485 28.54 48.525 28.54C47.565 28.54 47.085 28.264 47.085 27.712V11.548C47.085 9.556 47.649 8.116 48.777 7.228C49.929 6.316 51.441 5.86 53.313 5.86C57.465 5.86 59.541 7.732 59.541 11.476V12.988C59.541 13.54 59.061 13.816 58.101 13.816C57.141 13.816 56.661 13.54 56.661 12.988ZM79.4341 12.088V23.68C79.4341 24.232 78.9541 24.508 77.9941 24.508C77.0341 24.508 76.5541 24.232 76.5541 23.68V11.728C76.5541 9.952 75.0541 9.016 72.0541 8.92H71.6581C68.3701 8.92 66.7261 9.856 66.7261 11.728V21.664C66.7261 23.056 66.9301 24.04 67.3381 24.616C67.7701 25.192 68.5021 25.48 69.5341 25.48H72.3781C74.6581 25.48 76.3981 25.924 77.5981 26.812C78.8221 27.7 79.4341 29.152 79.4341 31.168V31.312C79.4341 33.328 78.8221 34.78 77.5981 35.668C76.3981 36.556 74.6581 37 72.3781 37H64.2061C63.7261 37 63.4861 36.58 63.4861 35.74C63.4861 34.9 63.7261 34.48 64.2061 34.48H72.3781C73.7941 34.48 74.8381 34.264 75.5101 33.832C76.2061 33.4 76.5541 32.68 76.5541 31.672V30.808C76.5541 29.8 76.2061 29.08 75.5101 28.648C74.8381 28.216 73.7941 28 72.3781 28H69.5341C67.4701 28 66.0061 27.508 65.1421 26.524C64.2781 25.516 63.8461 23.896 63.8461 21.664V12.088C63.8461 10.096 64.5541 8.656 65.9701 7.768C67.4101 6.856 69.3061 6.4 71.6581 6.4H76.6981C78.2581 6.4 79.4941 6.136 80.4061 5.608C80.6941 5.416 80.8741 5.32 80.9461 5.32C81.2341 5.32 81.5341 5.548 81.8461 6.004C82.1821 6.46 82.3501 6.844 82.3501 7.156C82.3501 7.588 81.9901 7.96 81.2701 8.272C80.5741 8.584 79.6381 8.788 78.4621 8.884C79.1101 9.772 79.4341 10.84 79.4341 12.088ZM102.927 7.048V22.852C102.927 24.844 102.207 26.296 100.767 27.208C99.3509 28.096 97.4669 28.54 95.1149 28.54C92.7629 28.54 90.8789 28.096 89.4629 27.208C88.0469 26.296 87.3389 24.844 87.3389 22.852V7.048C87.3389 6.496 87.8189 6.22 88.7789 6.22C89.7389 6.22 90.2189 6.496 90.2189 7.048V23.212C90.2189 25.084 91.8509 26.02 95.1149 26.02C98.4029 26.02 100.047 25.084 100.047 23.212V7.048C100.047 6.496 100.527 6.22 101.487 6.22C102.447 6.22 102.927 6.496 102.927 7.048ZM126.266 11.476V12.556C126.266 14.596 125.846 16 125.006 16.768C124.166 17.536 122.63 18.028 120.398 18.244L113.378 18.928V23.212C113.378 25.084 114.938 26.02 118.058 26.02C121.61 26.02 123.386 25.204 123.386 23.572V22.204C123.386 21.652 123.866 21.376 124.826 21.376C125.786 21.376 126.266 21.652 126.266 22.204V23.212C126.266 26.764 123.626 28.54 118.346 28.54C116.018 28.54 114.122 28.084 112.658 27.172C111.218 26.26 110.498 24.82 110.498 22.852V11.548C110.498 9.556 111.266 8.116 112.802 7.228C114.338 6.316 116.342 5.86 118.814 5.86C121.286 5.86 123.146 6.292 124.394 7.156C125.642 8.02 126.266 9.46 126.266 11.476ZM113.378 11.188V16.408L120.146 15.724C121.514 15.58 122.39 15.292 122.774 14.86C123.182 14.428 123.386 13.66 123.386 12.556V11.188C123.386 9.316 121.718 8.38 118.382 8.38C115.046 8.38 113.378 9.316 113.378 11.188ZM143.391 12.988V11.188C143.391 9.316 142.275 8.38 140.043 8.38C137.811 8.38 136.695 9.316 136.695 11.188V27.712C136.695 28.264 136.215 28.54 135.255 28.54C134.295 28.54 133.815 28.264 133.815 27.712V11.548C133.815 9.556 134.379 8.116 135.507 7.228C136.659 6.316 138.171 5.86 140.043 5.86C144.195 5.86 146.271 7.732 146.271 11.476V12.988C146.271 13.54 145.791 13.816 144.831 13.816C143.871 13.816 143.391 13.54 143.391 12.988Z" fill="white"/>
<path d="M164.617 28H152.377C151.897 28 151.657 27.58 151.657 26.74C151.657 25.9 151.897 25.48 152.377 25.48H157.057V3.88H152.377C151.897 3.88 151.657 3.46 151.657 2.62C151.657 1.78 151.897 1.36 152.377 1.36H157.777C158.689 1.36 159.277 1.552 159.541 1.936C159.805 2.296 159.937 2.968 159.937 3.952V25.48H164.617C165.097 25.48 165.337 25.9 165.337 26.74C165.337 27.58 165.097 28 164.617 28ZM187.751 6.508V22.852C187.751 24.844 186.971 26.296 185.411 27.208C183.875 28.096 181.835 28.54 179.291 28.54C173.819 28.54 171.083 26.644 171.083 22.852V6.508C171.083 4.516 171.851 3.076 173.387 2.188C174.947 1.276 176.999 0.819998 179.543 0.819998C185.015 0.819998 187.751 2.716 187.751 6.508ZM184.871 23.212V6.148C184.871 5.212 184.391 4.492 183.431 3.988L177.635 25.948C177.971 25.996 178.523 26.02 179.291 26.02C183.011 26.02 184.871 25.084 184.871 23.212ZM173.963 6.148V23.212C173.963 24.172 174.419 24.88 175.331 25.336L181.091 3.412C180.467 3.364 179.951 3.34 179.543 3.34C175.823 3.34 173.963 4.276 173.963 6.148Z" fill="#F37930"/>
</svg>
